<?xml version="1.0" standalone="no"?>
<!DOCTYPE svg PUBLIC "-//W3C//DTD SVG 20010904//EN"
 "http://www.w3.org/TR/2001/REC-SVG-20010904/DTD/svg10.dtd">
<svg version="1.0" xmlns="http://www.w3.org/2000/svg"
 width="595.000000pt" height="595.000000pt" viewBox="0 0 595.000000 595.000000"
 preserveAspectRatio="xMidYMid meet">
<metadata>
Created by potrace 1.14, written by Peter Selinger 2001-2017
</metadata>
<g transform="translate(0.000000,595.000000) scale(0.100000,-0.100000)"
fill="#000000" stroke="none">
<path d="M1832 5907 c-17 -12 -32 -31 -34 -42 -6 -27 17 -81 37 -89 15 -5 15
-15 1 -76 -3 -14 -8 -37 -10 -53 -3 -15 -7 -35 -10 -45 -3 -9 -7 -33 -10 -52
-2 -19 -10 -57 -16 -85 -6 -27 -14 -61 -16 -75 -4 -25 -15 -76 -20 -95 -2 -5
-6 -22 -9 -37 -3 -15 -9 -38 -14 -50 -5 -13 -9 -27 -10 -33 -2 -18 -22 -75
-27 -75 -2 0 -26 14 -52 30 -27 17 -54 30 -60 30 -5 0 -13 7 -16 16 -3 8 -10
12 -16 9 -5 -3 -10 -1 -10 4 0 6 -7 11 -15 11 -8 0 -15 5 -15 10 0 6 -7 10
-15 10 -8 0 -15 4 -15 8 0 4 -12 15 -27 24 -54 32 -98 77 -86 89 13 13 1 62
-21 84 -16 16 -73 20 -94 6 -24 -15 -43 -61 -32 -81 5 -9 6 -20 3 -24 -3 -3
-1 -6 6 -6 7 0 19 -7 27 -15 9 -8 24 -15 35 -15 19 0 20 -6 19 -72 -1 -40 -1
-77 0 -83 2 -5 1 -14 0 -20 -2 -5 -5 -39 -7 -75 -3 -36 -7 -67 -9 -69 -11 -11
-38 -8 -87 11 -28 11 -61 22 -72 25 -11 3 -71 30 -133 59 l-112 53 5 40 c4 34
1 43 -22 60 -51 41 -122 15 -129 -46 -3 -31 26 -80 40 -66 3 3 6 1 6 -5 0 -7
15 -9 41 -7 40 4 44 2 111 -68 38 -39 90 -96 116 -126 26 -29 55 -62 66 -73
24 -26 135 -190 133 -197 -1 -4 5 -17 12 -30 25 -45 33 -86 38 -197 4 -110 4
-111 -26 -163 -17 -28 -31 -58 -31 -66 0 -8 -4 -17 -10 -20 -7 -5 -22 -44 -35
-95 -21 -82 -27 -206 -14 -277 12 -66 40 -153 49 -153 4 0 11 -11 14 -24 7
-28 121 -146 141 -146 7 0 15 -5 17 -10 4 -12 183 -91 210 -93 10 -1 18 -4 18
-7 0 -3 14 -11 30 -18 32 -15 39 -30 44 -107 l4 -50 -39 -2 c-22 -2 -53 -10
-69 -18 -16 -8 -32 -15 -36 -15 -11 2 -72 -83 -81 -115 -17 -55 -6 -122 28
-171 17 -25 38 -48 47 -52 10 -3 23 -12 31 -20 7 -7 20 -11 27 -8 7 3 16 1 19
-4 4 -6 22 -10 41 -10 33 0 34 -2 35 -37 0 -21 2 -72 3 -114 l1 -77 -56 -17
c-63 -18 -108 -56 -134 -112 -22 -46 -27 -114 -10 -146 7 -14 11 -27 9 -29 -7
-8 61 -75 94 -92 18 -9 53 -18 78 -20 25 -3 48 -6 50 -9 3 -2 9 -33 15 -68 15
-98 19 -121 25 -155 5 -27 1 -34 -28 -54 -92 -64 -124 -141 -105 -258 5 -29
59 -112 80 -120 4 -2 13 -9 20 -15 22 -21 85 -38 131 -36 25 2 47 1 50 -2 2
-2 29 -44 60 -94 31 -49 64 -100 72 -112 10 -14 12 -23 5 -23 -6 0 -11 -6 -11
-14 0 -8 -7 -16 -14 -19 -22 -9 -46 -102 -40 -154 3 -24 14 -61 25 -81 23 -41
88 -104 100 -97 4 3 9 1 11 -5 3 -10 47 -20 98 -22 39 -2 105 22 134 49 21 19
30 22 46 13 11 -6 20 -15 20 -20 0 -5 8 -11 19 -15 10 -3 28 -13 39 -23 32
-27 59 -45 66 -43 4 1 16 -8 28 -19 13 -12 32 -23 44 -26 21 -5 22 -12 22 -82
-1 -86 18 -134 75 -184 28 -26 36 -30 53 -27 4 0 10 -5 14 -11 10 -17 140 -27
140 -11 0 7 4 9 10 6 24 -15 99 44 138 107 14 24 21 27 57 23 22 -2 40 -5 40
-6 0 -1 9 -3 20 -5 11 -2 34 -6 50 -9 17 -4 44 -7 61 -9 17 -2 36 -6 43 -10 6
-4 11 -5 11 -2 0 3 12 1 26 -4 16 -6 23 -6 19 0 -3 5 10 3 30 -5 26 -11 35
-12 35 -3 0 19 20 -5 25 -31 19 -101 59 -156 139 -192 117 -51 257 -1 298 108
11 31 38 50 55 40 5 -3 33 -8 63 -12 98 -11 192 -28 230 -40 19 -6 36 -35 21
-35 -14 0 18 -123 34 -136 8 -6 15 -15 15 -19 0 -12 48 -54 54 -47 3 3 6 1 6
-5 0 -21 155 -49 166 -31 3 5 12 7 20 4 7 -3 20 1 28 9 7 8 15 12 18 10 2 -2
22 13 43 33 l40 38 39 -19 c22 -11 45 -20 50 -22 6 -1 18 -5 26 -8 50 -19 122
-38 170 -44 53 -7 154 -9 165 -4 5 3 28 7 50 9 22 2 43 8 46 14 3 5 8 8 10 6
7 -5 99 36 99 44 0 4 5 8 11 8 6 0 29 16 50 35 22 19 36 35 32 35 -4 0 1 6 12
14 21 14 82 126 89 161 2 11 9 32 15 47 6 16 8 28 5 28 -4 0 -2 6 3 13 12 14
11 207 -1 252 -4 17 -9 35 -10 40 -4 15 -26 67 -42 99 -8 16 -14 35 -14 43 0
7 -4 13 -8 13 -7 0 -43 54 -43 64 0 3 -12 18 -27 34 -15 16 -52 55 -83 88 -31
32 -66 66 -78 74 -22 14 -33 23 -80 62 -12 10 -21 15 -21 12 0 -3 -15 6 -32
19 -33 25 -242 130 -265 133 -7 1 -34 9 -60 17 -26 8 -68 20 -93 27 -25 7 -52
15 -60 18 -8 3 -24 7 -35 9 -11 2 -27 6 -35 10 -8 3 -22 7 -30 8 -8 2 -25 6
-37 9 -57 15 -70 18 -96 22 -15 2 -36 8 -46 13 -10 6 -21 8 -24 5 -3 -3 -14
-1 -24 4 -10 6 -34 13 -53 16 -47 8 -115 23 -115 26 0 2 -41 9 -81 14 -17 2
-41 7 -53 11 -13 4 -33 9 -44 10 -12 2 -42 9 -67 15 -44 11 -93 21 -117 22 -7
1 -13 4 -13 8 0 4 -6 7 -12 8 -19 1 -70 12 -93 19 -11 4 -25 8 -31 9 -9 1 -90
25 -134 39 -3 1 -12 5 -20 8 -8 3 -42 16 -75 29 -69 25 -63 23 -92 33 -13 4
-23 12 -23 17 0 5 -4 7 -9 4 -5 -4 -11 -3 -13 1 -1 5 -24 19 -51 33 -26 14
-58 35 -72 47 -13 13 -27 23 -31 23 -13 0 -104 103 -129 146 -24 41 -51 106
-61 147 -2 9 -6 27 -9 40 -3 12 -7 45 -9 73 -2 29 -6 56 -9 60 -6 11 -9 98 -9
299 1 352 4 455 14 449 7 -4 7 0 0 12 -5 11 -8 28 -5 39 4 21 7 395 3 408 -7
21 -4 67 4 67 5 0 4 6 -1 13 -5 6 -11 32 -12 57 -3 66 -15 154 -24 190 -2 8
-7 29 -12 45 -16 63 -36 117 -64 173 l-29 57 19 36 c10 20 21 50 24 65 2 16 7
40 10 54 10 41 14 100 14 190 1 92 0 93 -18 160 -7 25 -12 46 -12 48 2 4 -32
64 -44 78 -21 24 -50 67 -50 73 1 15 41 91 47 91 5 0 8 7 8 15 0 8 5 15 10 15
6 0 10 5 10 11 0 12 60 103 72 107 4 2 8 10 8 17 0 8 11 26 25 41 14 15 25 31
25 36 0 20 32 40 68 43 20 2 40 3 45 4 4 1 16 15 27 33 16 27 17 34 5 58 -7
14 -24 31 -37 38 -21 11 -31 11 -78 0 -22 -5 -41 -64 -30 -92 7 -20 4 -28 -21
-50 -16 -14 -33 -26 -38 -26 -5 0 -11 -3 -13 -7 -4 -10 -65 -53 -73 -53 -4 0
-13 -6 -20 -12 -27 -25 -41 -33 -100 -63 -33 -16 -66 -36 -74 -43 -23 -22 -38
3 -65 109 -33 130 -42 219 -23 219 44 0 65 86 30 122 -20 20 -83 33 -83 17 0
-5 -5 -9 -11 -9 -36 0 -52 -68 -24 -106 13 -20 10 -26 -65 -103 -43 -44 -85
-81 -91 -81 -7 0 -9 -3 -6 -6 6 -6 -34 -44 -46 -44 -3 0 -20 -15 -38 -32 l-32
-33 -36 75 c-45 94 -84 187 -82 195 1 3 -5 18 -13 33 -14 25 -75 174 -81 197
-1 6 -9 26 -17 45 -35 81 -40 100 -29 100 4 0 14 12 22 28 17 28 10 84 -11 97
-35 22 -69 22 -98 2z m911 -1311 c2 -78 -11 -192 -25 -222 -10 -22 -12 -22
-24 -6 -7 9 -9 21 -4 27 4 5 6 19 4 30 -13 73 -16 109 -19 178 -1 42 3 96 9
118 l10 40 24 -52 c17 -36 25 -73 25 -113z"/>
<path d="M3383 4358 c-1 -24 -4 -70 -7 -103 -3 -33 -6 -79 -7 -101 -3 -38 -12
-56 -34 -64 -5 -1 -27 -14 -47 -26 -21 -13 -42 -24 -47 -24 -5 0 -16 -6 -23
-12 -7 -7 -24 -19 -38 -26 -14 -7 -35 -21 -48 -30 -22 -17 -22 -18 75 -57 180
-71 183 -73 183 -104 0 -15 3 -31 7 -35 4 -3 8 -14 9 -24 5 -36 26 -138 32
-152 7 -20 9 -28 11 -41 0 -6 13 4 28 23 15 18 36 40 45 49 10 9 18 19 18 23
0 4 11 18 24 31 14 14 36 40 50 58 21 28 32 33 59 31 134 -11 229 -21 246 -25
7 -2 15 4 16 14 2 9 -1 17 -6 17 -5 0 -15 12 -22 28 -6 15 -16 32 -22 39 -5 7
-16 19 -23 28 -7 8 -10 15 -6 15 3 0 0 7 -7 16 -13 16 -28 41 -50 81 -13 24
-11 29 72 211 16 35 29 68 29 73 0 7 -32 6 -50 -2 -3 -1 -9 -3 -15 -4 -5 -2
-12 -4 -15 -5 -8 -3 -32 -8 -104 -24 -38 -9 -77 -18 -86 -21 -16 -5 -66 35
-162 127 -16 14 -28 24 -28 20 0 -4 -7 4 -16 16 -24 35 -40 27 -41 -20z"/>
<path d="M3879 3259 c-31 -34 -58 -64 -60 -68 -2 -3 -16 -19 -31 -36 -16 -16
-51 -55 -78 -85 -47 -51 -52 -54 -93 -51 -23 2 -46 6 -52 9 -5 3 -23 7 -40 8
-32 1 -132 13 -171 20 -46 8 -104 12 -104 7 0 -4 18 -37 40 -75 22 -39 40 -74
40 -79 0 -5 3 -9 8 -9 4 0 12 -10 18 -23 26 -55 80 -153 88 -158 9 -7 -4 -38
-85 -201 -26 -54 -45 -98 -41 -98 4 0 3 -4 -3 -8 -5 -4 -18 -24 -27 -44 l-17
-36 37 4 c20 3 43 5 50 6 6 1 12 5 12 10 0 5 4 7 9 3 6 -3 29 -1 53 5 24 6 58
13 76 15 19 2 40 9 48 16 11 9 14 9 14 0 0 -7 5 -9 11 -6 5 4 25 9 42 12 18 2
36 9 41 14 6 5 28 -9 55 -36 143 -140 235 -225 242 -225 5 0 9 -8 9 -17 0 -40
19 6 23 57 3 30 6 55 7 55 1 0 3 23 4 50 3 45 7 86 22 199 6 43 18 60 52 70
12 4 22 12 22 17 0 6 4 8 9 4 5 -3 12 -1 16 5 4 6 11 8 16 5 5 -4 9 -2 9 4 0
6 11 13 25 17 14 3 25 10 25 16 0 5 5 6 10 3 6 -3 10 -2 10 3 0 4 16 14 35 22
19 8 35 18 35 24 0 5 3 7 6 3 3 -3 24 5 45 19 21 13 44 24 51 24 19 0 -25 29
-44 30 -10 0 -18 5 -18 10 0 6 -6 10 -14 10 -8 0 -31 9 -53 19 -41 21 -135 65
-143 67 -38 12 -50 18 -50 26 0 5 -4 7 -9 4 -11 -7 -44 18 -47 35 -1 8 -5 28
-8 44 -6 28 -9 41 -21 113 -6 36 -23 130 -30 167 -4 17 -7 38 -8 48 -1 9 -4
17 -7 17 -3 -1 -30 -28 -61 -61z"/>
<path d="M629 3273 c-1 -4 -2 -26 -4 -48 -1 -22 -6 -74 -9 -115 -4 -41 -9
-108 -11 -149 -5 -69 -18 -107 -35 -96 -4 2 -16 -5 -28 -15 -12 -11 -28 -20
-37 -20 -8 0 -15 -4 -15 -8 0 -5 -18 -17 -40 -27 -22 -10 -40 -22 -40 -27 0
-5 -4 -6 -10 -3 -5 3 -10 1 -10 -4 0 -6 -6 -11 -14 -11 -7 0 -19 -7 -26 -15
-7 -8 -16 -12 -21 -9 -5 3 -9 0 -9 -5 0 -6 -6 -11 -12 -11 -7 0 -21 -7 -31
-15 -18 -13 -16 -15 22 -35 23 -11 41 -18 41 -14 0 4 7 1 15 -6 8 -7 15 -9 15
-6 0 4 7 0 16 -8 8 -9 19 -14 24 -11 5 3 11 1 15 -5 4 -6 11 -8 16 -5 5 4 9 1
9 -4 0 -6 3 -10 8 -9 4 1 17 -3 28 -10 12 -6 24 -8 28 -5 3 3 6 1 6 -5 0 -6 7
-9 15 -6 8 4 15 2 15 -3 0 -6 18 -15 41 -22 23 -7 39 -14 36 -17 -2 -3 2 -30
10 -62 7 -31 16 -69 18 -83 2 -15 10 -52 18 -83 8 -31 13 -56 10 -56 -3 0 -1
-6 4 -12 5 -7 10 -29 12 -48 4 -45 6 -46 28 -20 10 12 26 31 36 42 9 12 17 25
17 30 0 5 5 6 10 3 6 -3 10 0 10 7 0 8 9 20 20 28 11 8 20 19 20 25 1 5 14 21
30 35 17 13 30 28 30 32 0 4 15 24 33 43 32 34 36 35 95 33 34 -2 62 -5 62 -8
0 -3 19 -6 43 -6 61 -2 191 -15 200 -21 4 -2 11 -1 17 2 9 5 -4 40 -20 55 -3
3 -26 39 -50 80 -25 41 -50 81 -57 88 -7 7 -13 20 -13 28 0 8 -4 14 -10 14 -5
0 -10 7 -10 15 0 8 -3 15 -7 15 -11 0 -32 48 -24 55 3 4 6 10 7 13 1 8 29 72
75 170 16 35 29 66 29 70 1 4 9 25 20 47 11 22 19 43 20 47 0 3 -24 0 -52 -7
-29 -8 -64 -16 -78 -19 -51 -10 -70 -15 -78 -19 -4 -3 -23 -8 -42 -11 -19 -3
-51 -10 -70 -16 -59 -17 -73 -12 -137 50 -34 33 -64 60 -67 60 -3 0 -20 15
-39 33 -68 66 -117 108 -118 100z"/>
</g>
</svg>
